<?xml version="1.0" ?><svg id="Layer_1" style="enable-background:new 0 0 512 512;" version="1.1" viewBox="0 0 512 512" xml:space="preserve" xmlns="http://www.w3.org/2000/svg" xmlns:xlink="http://www.w3.org/1999/xlink"><g><g><path d="M346.7,359.8c4.7-6.2,7.5-14,7.5-22.4V174.5c0-1.6-0.1-3.1-0.3-4.6l-105.3,75.7L346.7,359.8z" id="XMLID_7_"/><path d="M213.3,258.9l137.9-99.1c-5.7-13.3-19-22.7-34.4-22.7H43.4c-10.4,0-19.7,4.2-26.5,11l112.7,92.8    c0,0,0,0,0,0s0,0,0,0l19.4,15.9C167.4,272,193.9,272.9,213.3,258.9z" id="XMLID_6_"/><path d="M240.5,251.5l-21.5,15.4c-10.9,7.9-23.8,11.8-36.6,11.8c-14.2,0-28.3-4.8-39.8-14.3L127,251.5L25.4,370.2    c5.4,3,11.5,4.7,18.1,4.7h273.3c8.7,0,16.7-3,23.1-8L240.5,251.5z" id="XMLID_5_"/><path d="M17.4,364.4l101.9-119.1L11,156c-3.1,5.5-5,11.8-5,18.6v162.9C6,348,10.4,357.6,17.4,364.4z" id="XMLID_4_"/></g><g><path d="M499,278.8H363.4v-13.9H499c3.8,0,7,3.1,7,7l0,0C506,275.7,502.9,278.8,499,278.8z" id="XMLID_3_"/><path d="M481.1,307.9H363.4V294h117.7c3.8,0,7,3.1,7,7l0,0C488,304.8,484.9,307.9,481.1,307.9z" id="XMLID_2_"/><path d="M462.5,337h-99V323h99c3.8,0,7,3.1,7,7l0,0C469.4,333.8,466.3,337,462.5,337z" id="XMLID_1_"/></g></g></svg>